<svg width="512" height="512" viewBox="0 0 512 512" fill="none" xmlns="http://www.w3.org/2000/svg">
<path d="M237 0.600024C235.1 0.800024 229.2 1.50002 224 2.10002C195.8 5.30002 161.3 16.1 136 29.6C124.9 35.6 104.7 49.1 94 57.7C83.2 66.4 66.4 83.2 57.7 94C27.1 132 8.7 174.7 1.9 224C0.200001 236.3 0.100001 275.6 1.8 287.5C10.2 346.7 34.6 396.3 75.1 436.9C115.7 477.5 165.2 501.7 224.5 510.2C236.4 511.9 275.7 511.8 288 510.1C346 502.1 396.7 477.1 437 436.8C483.4 390.3 509.3 330.5 511.7 264.5C513 225.4 505.4 186.4 489.4 150.8C484 138.7 475.5 123.6 472.8 121.1C468.1 116.7 460 118.4 457.5 124.3C455.7 128.6 456.4 131.3 461.5 139.9C474.6 162.1 485.4 193.9 489.7 222.5C492.1 239.1 492.1 274 489.6 289.8C487.3 304.4 483.1 321.8 478.5 335C470.9 356.9 454.6 386.2 440 404C434 411.4 413.9 432 412.8 432C412.3 432 412 431.3 412 430.5C412 429.6 410.4 423.9 408.4 417.7C390.3 361.3 344.4 320.5 285.8 308.8C269.6 305.6 242.4 305.6 226.2 308.8C165.7 320.9 118.3 364.5 102 423C100.7 427.7 99.5 431.7 99.3 431.9C98.6 432.8 79.9 413.5 72.6 404.5C36.5 360.1 18 304.2 20.4 247C21.9 209.1 31.4 174.9 49.3 142.5C85 77.8 148.2 33.9 222 22.4C238 19.9 273.9 19.9 289.8 22.4C329.1 28.5 362.8 42.2 393.8 64.5C400.7 69.5 404.1 71.2 406.6 71.3C413.6 71.5 418.6 64.4 416 58C415.3 56.3 412 52.9 408.1 50.1C373.1 24.3 333.5 8.30002 289 2.00002C281.2 0.900024 243.1 -0.0999756 237 0.600024ZM273 327.1C319.4 332.8 360.2 361.4 380.9 402.8C386 413 391.3 428.7 393.3 439.4L394.8 447.2L384.1 454.2C356.8 472 324.4 484.2 289.8 489.6C272.6 492.4 236.9 492.1 219.5 489.2C185.2 483.3 154.1 471.4 127.9 454.1L117.2 447.1L118.7 439.3C128.4 386.9 168.3 344.5 220.6 330.7C237.6 326.2 255.9 324.9 273 327.1Z" fill="#AF9387"/>
<path d="M435.1 83.4C426.4 88.2 430.1 102 440 102C445.1 102 450 97.1 450 92.1C450 84.6 441.7 79.7 435.1 83.4Z" fill="#AF9387"/>
<path d="M238 107.9C204.1 115.3 177.9 140.2 168.9 173.5C167.1 180 166.7 184.2 166.7 196C166.7 207.8 167.1 212 168.9 218.5C177.7 250.9 202.9 275.5 235.7 283.7C246 286.3 268 286 278.5 283.1C310.2 274.6 334.5 250.2 343.1 218.5C344.9 212 345.3 207.8 345.3 196C345.3 184.2 344.9 180 343.1 173.5C334.5 141.8 309.8 117.1 278.5 108.9C266.9 105.9 249.1 105.4 238 107.9ZM269.3 127.4C290.5 131.5 308.8 145.6 318.4 165.2C328.5 185.9 328.5 206.1 318.3 227C314.5 234.9 312.3 237.9 305.1 245.1C297.9 252.3 294.9 254.5 287 258.3C266.1 268.5 245.9 268.5 225 258.3C217.1 254.5 214.1 252.3 206.9 245.1C199.8 238 197.5 234.9 193.6 227C183.5 206.4 183.5 185.6 193.6 165C197.5 157.1 199.8 154 206.9 146.9C214 139.8 217.1 137.5 225 133.6C239.6 126.4 253.7 124.5 269.3 127.4Z" fill="#AF9387"/>
</svg>
